<svg width="640" height="480" xmlns="http://www.w3.org/2000/svg">
<defs>
  <linearGradient id="bg" x1="0" y1="0" x2="0" y2="1">
    <stop offset="0%" stop-color="#0d1117"/>
    <stop offset="60%" stop-color="#161b22"/>
    <stop offset="100%" stop-color="#21262d"/>
  </linearGradient>
  <linearGradient id="topbar" x1="0" y1="0" x2="0" y2="1">
    <stop offset="0%" stop-color="#000" stop-opacity="0.88"/>
    <stop offset="100%" stop-color="#000" stop-opacity="0"/>
  </linearGradient>
  <linearGradient id="botbar" x1="0" y1="1" x2="0" y2="0">
    <stop offset="0%" stop-color="#000" stop-opacity="0.88"/>
    <stop offset="100%" stop-color="#000" stop-opacity="0"/>
  </linearGradient>
</defs>

<!-- Background -->
<rect width="640" height="480" fill="url(#bg)"/>

<!-- Road surface -->
<rect x="0" y="360" width="640" height="120" fill="#111418" opacity="0.6"/>
<line x1="320" y1="480" x2="190" y2="360" stroke="#fff" stroke-width="1" stroke-dasharray="14,18" opacity="0.07"/>
<line x1="320" y1="480" x2="450" y2="360" stroke="#fff" stroke-width="1" stroke-dasharray="14,18" opacity="0.07"/>

<!-- Vehicle shadow -->
<ellipse cx="278" cy="365" rx="108" ry="12" fill="#000" opacity="0.5"/>

<!-- Car body -->
<rect x="178" y="248" width="200" height="80" rx="9" fill="#263238"/>
<!-- Cabin -->
<rect x="210" y="214" width="136" height="52" rx="7" fill="#424e54"/>
<!-- Windshield -->
<rect x="218" y="219" width="50" height="38" rx="4" fill="#102040" opacity="0.92"/>
<!-- Rear window -->
<rect x="288" y="219" width="50" height="38" rx="4" fill="#102040" opacity="0.92"/>
<!-- Body details -->
<rect x="178" y="275" width="200" height="4" fill="#000" opacity="0.25"/>
<!-- Front lamp -->
<rect x="178" y="257" width="14" height="20" rx="3" fill="#fff9c4" opacity="0.85"/>
<rect x="178" y="257" width="6" height="20" rx="2" fill="#fff" opacity="0.5"/>
<!-- Rear lamp -->
<rect x="364" y="257" width="14" height="20" rx="3" fill="#f44336" opacity="0.8"/>
<!-- Door line -->
<line x1="278" y1="248" x2="278" y2="328" stroke="#000" stroke-width="1.5" opacity="0.35"/>
<!-- Wheels -->
<circle cx="222" cy="328" r="25" fill="#1a1a1a" stroke="#2d2d2d" stroke-width="2"/>
<circle cx="222" cy="328" r="14" fill="#2a2a2a" stroke="#3d3d3d" stroke-width="1"/>
<circle cx="222" cy="328" r="5" fill="#444"/>
<circle cx="334" cy="328" r="25" fill="#1a1a1a" stroke="#2d2d2d" stroke-width="2"/>
<circle cx="334" cy="328" r="14" fill="#2a2a2a" stroke="#3d3d3d" stroke-width="1"/>
<circle cx="334" cy="328" r="5" fill="#444"/>

<!-- Detection bounding box -->
<rect x="160" y="205" width="236" height="145" fill="none" stroke="#00e676" stroke-width="1.8" stroke-dasharray="7,5" opacity="0.8"/>
<!-- Corner accents -->
<polyline points="160,219 160,205 174,205" fill="none" stroke="#00e676" stroke-width="3"/>
<polyline points="382,205 396,205 396,219" fill="none" stroke="#00e676" stroke-width="3"/>
<polyline points="160,336 160,350 174,350" fill="none" stroke="#00e676" stroke-width="3"/>
<polyline points="382,350 396,350 396,336" fill="none" stroke="#00e676" stroke-width="3"/>
<!-- Plate highlight -->
<rect x="208" y="310" width="134" height="32" fill="#00e676" opacity="0.12" rx="3"/>
<rect x="208" y="310" width="134" height="32" fill="none" stroke="#00e676" stroke-width="1.5" rx="3"/>
<!-- Plate OCR label -->
<rect x="208" y="290" width="102" height="18" fill="#00e676" rx="3" opacity="0.92"/>
<text x="214" y="304" font-family="Courier New,monospace" font-size="11" fill="#000" font-weight="bold">D 8447 KYC</text>

<!-- Top bar -->
<rect width="640" height="52" fill="url(#topbar)"/>
<text x="11" y="22" font-family="Courier New,monospace" font-size="13" fill="white" font-weight="bold" opacity="0.95">CAM-V04-GATE</text>

<text x="629" y="22" font-family="Courier New,monospace" font-size="11" fill="white" text-anchor="end" opacity="0.85">2026-05-21 04:08:29</text>
<!-- REC blink -->
<circle cx="621" cy="38" r="5" fill="#f44336" opacity="0.9">
  <animate attributeName="opacity" values="0.9;0.25;0.9" dur="1.6s" repeatCount="indefinite"/>
</circle>
<text x="609" y="42" font-family="Courier New,monospace" font-size="11" fill="#f55" text-anchor="end" font-weight="bold">REC</text>

<!-- Bottom bar -->
<rect y="436" width="640" height="44" fill="url(#botbar)"/>
<rect x="10" y="455" width="162" height="7" rx="3" fill="#00e676" opacity="0.85"/>
<rect x="10" y="455" width="180" height="7" rx="3" fill="none" stroke="#444" stroke-width="1"/>
<text x="198" y="464" font-family="Courier New,monospace" font-size="11" fill="#00e676" font-weight="bold">90.1% OCR</text>
<text x="629" y="464" font-family="Courier New,monospace" font-size="11" fill="#00e676" text-anchor="end" font-weight="bold">▶ VEHICLE DETECTED</text>

<!-- MOCK watermark -->
<text x="320" y="248" font-family="Arial,sans-serif" font-size="60" fill="white" opacity="0.035" text-anchor="middle" font-weight="900" letter-spacing="8">MOCK</text>

<!-- Scanlines -->
<rect x="0" y="1" width="640" height="2" fill="#000" opacity="0.03"/><rect x="0" y="6" width="640" height="2" fill="#000" opacity="0.03"/><rect x="0" y="11" width="640" height="2" fill="#000" opacity="0.03"/><rect x="0" y="16" width="640" height="2" fill="#000" opacity="0.03"/><rect x="0" y="21" width="640" height="2" fill="#000" opacity="0.03"/><rect x="0" y="26" width="640" height="2" fill="#000" opacity="0.03"/><rect x="0" y="31" width="640" height="2" fill="#000" opacity="0.03"/><rect x="0" y="36" width="640" height="2" fill="#000" opacity="0.03"/><rect x="0" y="41" width="640" height="2" fill="#000" opacity="0.03"/><rect x="0" y="46" width="640" height="2" fill="#000" opacity="0.03"/><rect x="0" y="51" width="640" height="2" fill="#000" opacity="0.03"/><rect x="0" y="56" width="640" height="2" fill="#000" opacity="0.03"/><rect x="0" y="61" width="640" height="2" fill="#000" opacity="0.03"/><rect x="0" y="66" width="640" height="2" fill="#000" opacity="0.03"/><rect x="0" y="71" width="640" height="2" fill="#000" opacity="0.03"/><rect x="0" y="76" width="640" height="2" fill="#000" opacity="0.03"/><rect x="0" y="81" width="640" height="2" fill="#000" opacity="0.03"/><rect x="0" y="86" width="640" height="2" fill="#000" opacity="0.03"/><rect x="0" y="91" width="640" height="2" fill="#000" opacity="0.03"/><rect x="0" y="96" width="640" height="2" fill="#000" opacity="0.03"/><rect x="0" y="101" width="640" height="2" fill="#000" opacity="0.03"/><rect x="0" y="106" width="640" height="2" fill="#000" opacity="0.03"/><rect x="0" y="111" width="640" height="2" fill="#000" opacity="0.03"/><rect x="0" y="116" width="640" height="2" fill="#000" opacity="0.03"/><rect x="0" y="121" width="640" height="2" fill="#000" opacity="0.03"/><rect x="0" y="126" width="640" height="2" fill="#000" opacity="0.03"/><rect x="0" y="131" width="640" height="2" fill="#000" opacity="0.03"/><rect x="0" y="136" width="640" height="2" fill="#000" opacity="0.03"/><rect x="0" y="141" width="640" height="2" fill="#000" opacity="0.03"/><rect x="0" y="146" width="640" height="2" fill="#000" opacity="0.03"/><rect x="0" y="151" width="640" height="2" fill="#000" opacity="0.03"/><rect x="0" y="156" width="640" height="2" fill="#000" opacity="0.03"/><rect x="0" y="161" width="640" height="2" fill="#000" opacity="0.03"/><rect x="0" y="166" width="640" height="2" fill="#000" opacity="0.03"/><rect x="0" y="171" width="640" height="2" fill="#000" opacity="0.03"/><rect x="0" y="176" width="640" height="2" fill="#000" opacity="0.03"/><rect x="0" y="181" width="640" height="2" fill="#000" opacity="0.03"/><rect x="0" y="186" width="640" height="2" fill="#000" opacity="0.03"/><rect x="0" y="191" width="640" height="2" fill="#000" opacity="0.03"/><rect x="0" y="196" width="640" height="2" fill="#000" opacity="0.03"/><rect x="0" y="201" width="640" height="2" fill="#000" opacity="0.03"/><rect x="0" y="206" width="640" height="2" fill="#000" opacity="0.03"/><rect x="0" y="211" width="640" height="2" fill="#000" opacity="0.03"/><rect x="0" y="216" width="640" height="2" fill="#000" opacity="0.03"/><rect x="0" y="221" width="640" height="2" fill="#000" opacity="0.03"/><rect x="0" y="226" width="640" height="2" fill="#000" opacity="0.03"/><rect x="0" y="231" width="640" height="2" fill="#000" opacity="0.03"/><rect x="0" y="236" width="640" height="2" fill="#000" opacity="0.03"/><rect x="0" y="241" width="640" height="2" fill="#000" opacity="0.03"/><rect x="0" y="246" width="640" height="2" fill="#000" opacity="0.03"/><rect x="0" y="251" width="640" height="2" fill="#000" opacity="0.03"/><rect x="0" y="256" width="640" height="2" fill="#000" opacity="0.03"/><rect x="0" y="261" width="640" height="2" fill="#000" opacity="0.03"/><rect x="0" y="266" width="640" height="2" fill="#000" opacity="0.03"/><rect x="0" y="271" width="640" height="2" fill="#000" opacity="0.03"/><rect x="0" y="276" width="640" height="2" fill="#000" opacity="0.03"/><rect x="0" y="281" width="640" height="2" fill="#000" opacity="0.03"/><rect x="0" y="286" width="640" height="2" fill="#000" opacity="0.03"/><rect x="0" y="291" width="640" height="2" fill="#000" opacity="0.03"/><rect x="0" y="296" width="640" height="2" fill="#000" opacity="0.03"/><rect x="0" y="301" width="640" height="2" fill="#000" opacity="0.03"/><rect x="0" y="306" width="640" height="2" fill="#000" opacity="0.03"/><rect x="0" y="311" width="640" height="2" fill="#000" opacity="0.03"/><rect x="0" y="316" width="640" height="2" fill="#000" opacity="0.03"/><rect x="0" y="321" width="640" height="2" fill="#000" opacity="0.03"/><rect x="0" y="326" width="640" height="2" fill="#000" opacity="0.03"/><rect x="0" y="331" width="640" height="2" fill="#000" opacity="0.03"/><rect x="0" y="336" width="640" height="2" fill="#000" opacity="0.03"/><rect x="0" y="341" width="640" height="2" fill="#000" opacity="0.03"/><rect x="0" y="346" width="640" height="2" fill="#000" opacity="0.03"/><rect x="0" y="351" width="640" height="2" fill="#000" opacity="0.03"/><rect x="0" y="356" width="640" height="2" fill="#000" opacity="0.03"/><rect x="0" y="361" width="640" height="2" fill="#000" opacity="0.03"/><rect x="0" y="366" width="640" height="2" fill="#000" opacity="0.03"/><rect x="0" y="371" width="640" height="2" fill="#000" opacity="0.03"/><rect x="0" y="376" width="640" height="2" fill="#000" opacity="0.03"/><rect x="0" y="381" width="640" height="2" fill="#000" opacity="0.03"/><rect x="0" y="386" width="640" height="2" fill="#000" opacity="0.03"/><rect x="0" y="391" width="640" height="2" fill="#000" opacity="0.03"/><rect x="0" y="396" width="640" height="2" fill="#000" opacity="0.03"/><rect x="0" y="401" width="640" height="2" fill="#000" opacity="0.03"/><rect x="0" y="406" width="640" height="2" fill="#000" opacity="0.03"/><rect x="0" y="411" width="640" height="2" fill="#000" opacity="0.03"/><rect x="0" y="416" width="640" height="2" fill="#000" opacity="0.03"/><rect x="0" y="421" width="640" height="2" fill="#000" opacity="0.03"/><rect x="0" y="426" width="640" height="2" fill="#000" opacity="0.03"/><rect x="0" y="431" width="640" height="2" fill="#000" opacity="0.03"/><rect x="0" y="436" width="640" height="2" fill="#000" opacity="0.03"/><rect x="0" y="441" width="640" height="2" fill="#000" opacity="0.03"/><rect x="0" y="446" width="640" height="2" fill="#000" opacity="0.03"/><rect x="0" y="451" width="640" height="2" fill="#000" opacity="0.03"/><rect x="0" y="456" width="640" height="2" fill="#000" opacity="0.03"/><rect x="0" y="461" width="640" height="2" fill="#000" opacity="0.03"/><rect x="0" y="466" width="640" height="2" fill="#000" opacity="0.03"/><rect x="0" y="471" width="640" height="2" fill="#000" opacity="0.03"/><rect x="0" y="476" width="640" height="2" fill="#000" opacity="0.03"/>
</svg>